# MagicaVoxel @ Ephtracy

# group
g Map 3

# material
mtllib Map 3.mtl
usemtl palette

# normals
vn -1 0 0
vn 1 0 0
vn 0 0 1
vn 0 0 -1
vn 0 -1 0
vn 0 1 0

# texcoords
vt 0.306641 0.5
vt 0.986328 0.5

# verts
v -19 0 30
v -19 0 -26
v -19 8 30
v -19 8 -26
v -19 9 30
v -19 9 -26
v -15 1 1
v -15 1 -11
v -15 9 1
v -15 9 -11
v -13 1 29
v -13 1 21
v -13 1 18
v -13 1 14
v -13 1 13
v -13 1 9
v -13 8 29
v -13 8 21
v -13 8 14
v -13 8 13
v -13 9 29
v -13 9 21
v -13 9 18
v -13 9 14
v -13 9 13
v -13 9 9
v -7 1 -11
v -7 1 -25
v -7 8 -25
v -7 9 -11
v -7 9 -25
v -6 1 22
v -6 1 18
v -6 1 17
v -6 1 13
v -6 1 7
v -6 1 1
v -6 1 -7
v -6 1 -8
v -6 9 22
v -6 9 18
v -6 9 17
v -6 9 13
v -6 9 7
v -6 9 1
v -6 9 -7
v -6 9 -8
v -1 1 27
v -1 1 26
v -1 9 27
v -1 9 26
v 1 1 13
v 1 1 9
v 1 9 13
v 1 9 9
v 2 1 6
v 2 1 -7
v 2 1 -8
v 2 1 -14
v 2 9 6
v 2 9 -7
v 2 9 -8
v 2 9 -14
v 4 1 29
v 4 1 27
v 4 1 19
v 4 1 18
v 4 8 29
v 4 9 29
v 4 9 27
v 4 9 19
v 4 9 18
v 6 1 15
v 6 1 14
v 6 9 15
v 6 9 14
v 7 1 9
v 7 1 4
v 7 9 9
v 7 9 4
v 8 0 21
v 8 0 20
v 8 1 26
v 8 1 22
v 8 1 20
v 8 1 19
v 8 9 26
v 8 9 22
v 8 9 21
v 8 9 19
v 10 1 -7
v 10 1 -13
v 10 9 -7
v 10 9 -13
v 15 1 25
v 15 1 15
v 15 1 14
v 15 1 -17
v 15 1 -19
v 15 1 -25
v 15 8 -25
v 15 9 25
v 15 9 15
v 15 9 14
v 15 9 -17
v 15 9 -19
v 15 9 -25
v 24 1 29
v 24 1 -16
v 24 1 -17
v 24 1 -25
v 24 8 29
v 24 8 -16
v 24 8 -17
v 24 8 -25
v 24 9 29
v 24 9 -16
v 24 9 -17
v 24 9 -25
v -18 1 29
v -18 1 14
v -18 1 13
v -18 1 -25
v -18 8 29
v -18 8 14
v -18 8 13
v -18 8 -25
v -18 9 29
v -18 9 14
v -18 9 13
v -18 9 -25
v -14 1 -0
v -14 1 -11
v -14 9 -0
v -14 9 -11
v -12 1 29
v -12 1 21
v -12 1 17
v -12 1 10
v -12 8 29
v -12 8 21
v -12 9 29
v -12 9 21
v -12 9 17
v -12 9 10
v -6 1 10
v -6 1 9
v -6 1 -11
v -6 1 -25
v -6 8 -25
v -6 9 10
v -6 9 9
v -6 9 -11
v -6 9 -25
v -5 1 21
v -5 1 14
v -5 1 6
v -5 1 -0
v -5 9 21
v -5 9 14
v -5 9 6
v -5 9 -0
v 2 1 14
v 2 1 10
v 2 9 14
v 2 9 10
v 3 1 7
v 3 1 -13
v 3 9 7
v 3 9 -13
v 5 1 29
v 5 1 26
v 5 8 29
v 5 9 29
v 5 9 26
v 7 0 21
v 7 0 20
v 7 1 21
v 7 1 20
v 8 1 10
v 8 1 4
v 8 9 10
v 8 9 4
v 9 1 26
v 9 1 18
v 9 9 26
v 9 9 18
v 11 1 -7
v 11 1 -14
v 11 9 -7
v 11 9 -14
v 16 1 25
v 16 1 -16
v 16 1 -19
v 16 1 -25
v 16 8 -16
v 16 8 -25
v 16 9 25
v 16 9 -16
v 16 9 -19
v 16 9 -25
v 25 0 30
v 25 0 -26
v 25 8 30
v 25 8 -26
v 25 9 30
v 25 9 -26
v -19 0 30
v -19 8 30
v -19 9 30
v 25 0 30
v 25 8 30
v 25 9 30
v -1 1 27
v -1 9 27
v 4 1 27
v 4 9 27
v 8 1 26
v 8 9 26
v 9 1 26
v 9 9 26
v 15 1 25
v 15 9 25
v 16 1 25
v 16 9 25
v -6 1 22
v -6 9 22
v 8 1 22
v 8 9 22
v 7 0 20
v 7 1 20
v 8 0 20
v 8 1 20
v 4 1 19
v 4 9 19
v 8 1 19
v 8 9 19
v -13 1 18
v -13 9 18
v -6 1 18
v -6 9 18
v 6 1 15
v 6 9 15
v 15 1 15
v 15 9 15
v -18 1 14
v -18 8 14
v -18 9 14
v -13 1 14
v -13 8 14
v -13 9 14
v -5 1 14
v -5 9 14
v 2 1 14
v 2 9 14
v -12 1 10
v -12 9 10
v -6 1 10
v -6 9 10
v 2 1 10
v 2 9 10
v 8 1 10
v 8 9 10
v -6 1 7
v -6 9 7
v 3 1 7
v 3 9 7
v -15 1 1
v -15 9 1
v -6 1 1
v -6 9 1
v -6 1 -7
v -6 9 -7
v 2 1 -7
v 2 9 -7
v 10 1 -7
v 10 9 -7
v 11 1 -7
v 11 9 -7
v -7 1 -11
v -7 9 -11
v -6 1 -11
v -6 9 -11
v 3 1 -13
v 3 9 -13
v 10 1 -13
v 10 9 -13
v 16 1 -16
v 16 8 -16
v 16 9 -16
v 24 1 -16
v 24 8 -16
v 24 9 -16
v 15 1 -19
v 15 9 -19
v 16 1 -19
v 16 9 -19
v -18 1 -25
v -18 8 -25
v -18 9 -25
v -7 1 -25
v -7 8 -25
v -7 9 -25
v -6 1 -25
v -6 8 -25
v -6 9 -25
v 15 1 -25
v 15 8 -25
v 15 9 -25
v 16 1 -25
v 16 8 -25
v 16 9 -25
v 24 1 -25
v 24 8 -25
v 24 9 -25
v -18 1 29
v -18 8 29
v -18 9 29
v -13 1 29
v -13 8 29
v -13 9 29
v -12 1 29
v -12 8 29
v -12 9 29
v 4 1 29
v 4 8 29
v 4 9 29
v 5 1 29
v 5 8 29
v 5 9 29
v 24 1 29
v 24 8 29
v 24 9 29
v -1 1 26
v -1 9 26
v 5 1 26
v 5 9 26
v -13 1 21
v -13 8 21
v -13 9 21
v -12 1 21
v -12 8 21
v -12 9 21
v -5 1 21
v -5 9 21
v 7 0 21
v 7 1 21
v 8 0 21
v 8 9 21
v 4 1 18
v 4 9 18
v 9 1 18
v 9 9 18
v -12 1 17
v -12 9 17
v -6 1 17
v -6 9 17
v 6 1 14
v 6 9 14
v 15 1 14
v 15 9 14
v -18 1 13
v -18 8 13
v -18 9 13
v -13 1 13
v -13 8 13
v -13 9 13
v -6 1 13
v -6 9 13
v 1 1 13
v 1 9 13
v -13 1 9
v -13 9 9
v -6 1 9
v -6 9 9
v 1 1 9
v 1 9 9
v 7 1 9
v 7 9 9
v -5 1 6
v -5 9 6
v 2 1 6
v 2 9 6
v 7 1 4
v 7 9 4
v 8 1 4
v 8 9 4
v -14 1 -0
v -14 9 -0
v -5 1 -0
v -5 9 -0
v -6 1 -8
v -6 9 -8
v 2 1 -8
v 2 9 -8
v -15 1 -11
v -15 9 -11
v -14 1 -11
v -14 9 -11
v 2 1 -14
v 2 9 -14
v 11 1 -14
v 11 9 -14
v 15 1 -17
v 15 9 -17
v 16 1 -17
v 16 8 -17
v 24 1 -17
v 24 8 -17
v 24 9 -17
v -19 0 -26
v -19 8 -26
v -19 9 -26
v 25 0 -26
v 25 8 -26
v 25 9 -26
v -19 0 30
v 25 0 30
v 7 0 22
v 8 0 22
v 7 0 21
v 8 0 21
v 9 0 21
v 7 0 20
v 8 0 20
v 9 0 20
v -19 0 -26
v 25 0 -26
v -18 1 29
v -13 1 29
v -12 1 29
v 4 1 29
v 5 1 29
v 24 1 29
v -1 1 27
v 4 1 27
v -1 1 26
v 5 1 26
v 8 1 26
v 9 1 26
v 15 1 25
v 16 1 25
v -6 1 22
v 8 1 22
v -13 1 21
v -12 1 21
v -5 1 21
v 7 1 21
v 7 1 20
v 8 1 20
v 4 1 19
v 8 1 19
v -13 1 18
v -6 1 18
v 4 1 18
v 9 1 18
v -12 1 17
v -6 1 17
v 6 1 15
v 15 1 15
v -18 1 14
v -13 1 14
v -5 1 14
v 2 1 14
v 6 1 14
v 15 1 14
v -18 1 13
v -13 1 13
v -6 1 13
v 1 1 13
v -12 1 10
v -6 1 10
v 2 1 10
v 8 1 10
v -13 1 9
v -6 1 9
v 1 1 9
v 7 1 9
v -6 1 7
v 3 1 7
v -5 1 6
v 2 1 6
v 7 1 4
v 8 1 4
v -15 1 1
v -6 1 1
v -14 1 -0
v -5 1 -0
v -6 1 -7
v 2 1 -7
v 10 1 -7
v 11 1 -7
v -6 1 -8
v 2 1 -8
v -15 1 -11
v -14 1 -11
v -7 1 -11
v -6 1 -11
v 3 1 -13
v 10 1 -13
v 2 1 -14
v 11 1 -14
v 16 1 -16
v 24 1 -16
v 15 1 -17
v 16 1 -17
v 24 1 -17
v 15 1 -19
v 16 1 -19
v -18 1 -25
v -7 1 -25
v -6 1 -25
v 15 1 -25
v 16 1 -25
v 24 1 -25
v -19 9 30
v 25 9 30
v -18 9 29
v -13 9 29
v -12 9 29
v 4 9 29
v 5 9 29
v 24 9 29
v -1 9 27
v 4 9 27
v -1 9 26
v 5 9 26
v 8 9 26
v 9 9 26
v 15 9 25
v 16 9 25
v -6 9 22
v 8 9 22
v -13 9 21
v -12 9 21
v -5 9 21
v 8 9 21
v 4 9 19
v 8 9 19
v -13 9 18
v -6 9 18
v 4 9 18
v 9 9 18
v -12 9 17
v -6 9 17
v 6 9 15
v 15 9 15
v -18 9 14
v -13 9 14
v -5 9 14
v 2 9 14
v 6 9 14
v 15 9 14
v -18 9 13
v -13 9 13
v -6 9 13
v 1 9 13
v -12 9 10
v -6 9 10
v 2 9 10
v 8 9 10
v -13 9 9
v -6 9 9
v 1 9 9
v 7 9 9
v -6 9 7
v 3 9 7
v -5 9 6
v 2 9 6
v 7 9 4
v 8 9 4
v -15 9 1
v -6 9 1
v -14 9 -0
v -5 9 -0
v -6 9 -7
v 2 9 -7
v 10 9 -7
v 11 9 -7
v -6 9 -8
v 2 9 -8
v -15 9 -11
v -14 9 -11
v -7 9 -11
v -6 9 -11
v 3 9 -13
v 10 9 -13
v 2 9 -14
v 11 9 -14
v 16 9 -16
v 24 9 -16
v 15 9 -17
v 24 9 -17
v 15 9 -19
v 16 9 -19
v -18 9 -25
v -7 9 -25
v -6 9 -25
v 15 9 -25
v 16 9 -25
v 24 9 -25
v -19 9 -26
v 25 9 -26

# faces
f 3/1/1 2/1/1 1/1/1
f 4/1/1 2/1/1 3/1/1
f 5/2/1 4/2/1 3/2/1
f 6/2/1 4/2/1 5/2/1
f 9/2/1 8/2/1 7/2/1
f 10/2/1 8/2/1 9/2/1
f 17/1/1 12/1/1 11/1/1
f 18/1/1 12/1/1 17/1/1
f 19/2/1 14/2/1 13/2/1
f 20/2/1 16/2/1 15/2/1
f 21/2/1 18/2/1 17/2/1
f 22/2/1 18/2/1 21/2/1
f 23/2/1 19/2/1 13/2/1
f 24/2/1 19/2/1 23/2/1
f 25/2/1 16/2/1 20/2/1
f 26/2/1 16/2/1 25/2/1
f 29/2/1 28/2/1 27/2/1
f 30/2/1 29/2/1 27/2/1
f 31/2/1 29/2/1 30/2/1
f 40/2/1 33/2/1 32/2/1
f 41/2/1 33/2/1 40/2/1
f 42/2/1 35/2/1 34/2/1
f 43/2/1 35/2/1 42/2/1
f 44/2/1 37/2/1 36/2/1
f 45/2/1 37/2/1 44/2/1
f 46/2/1 39/2/1 38/2/1
f 47/2/1 39/2/1 46/2/1
f 50/2/1 49/2/1 48/2/1
f 51/2/1 49/2/1 50/2/1
f 54/2/1 53/2/1 52/2/1
f 55/2/1 53/2/1 54/2/1
f 60/2/1 57/2/1 56/2/1
f 61/2/1 57/2/1 60/2/1
f 62/2/1 59/2/1 58/2/1
f 63/2/1 59/2/1 62/2/1
f 68/2/1 65/2/1 64/2/1
f 69/2/1 65/2/1 68/2/1
f 70/2/1 65/2/1 69/2/1
f 71/2/1 67/2/1 66/2/1
f 72/2/1 67/2/1 71/2/1
f 75/2/1 74/2/1 73/2/1
f 76/2/1 74/2/1 75/2/1
f 79/2/1 78/2/1 77/2/1
f 80/2/1 78/2/1 79/2/1
f 85/2/1 82/2/1 81/2/1
f 87/2/1 84/2/1 83/2/1
f 88/2/1 84/2/1 87/2/1
f 89/2/1 86/2/1 85/2/1
f 89/2/1 85/2/1 81/2/1
f 90/2/1 86/2/1 89/2/1
f 93/2/1 92/2/1 91/2/1
f 94/2/1 92/2/1 93/2/1
f 101/2/1 100/2/1 99/2/1
f 102/2/1 96/2/1 95/2/1
f 103/2/1 96/2/1 102/2/1
f 104/2/1 98/2/1 97/2/1
f 105/2/1 98/2/1 104/2/1
f 106/2/1 101/2/1 99/2/1
f 107/2/1 101/2/1 106/2/1
f 112/1/1 109/1/1 108/1/1
f 113/1/1 109/1/1 112/1/1
f 114/1/1 111/1/1 110/1/1
f 115/1/1 111/1/1 114/1/1
f 116/2/1 113/2/1 112/2/1
f 117/2/1 113/2/1 116/2/1
f 118/2/1 115/2/1 114/2/1
f 119/2/1 115/2/1 118/2/1
f 120/1/2 121/1/2 124/1/2
f 124/1/2 121/1/2 125/1/2
f 122/1/2 123/1/2 126/1/2
f 126/1/2 123/1/2 127/1/2
f 124/2/2 125/2/2 128/2/2
f 128/2/2 125/2/2 129/2/2
f 126/2/2 127/2/2 130/2/2
f 130/2/2 127/2/2 131/2/2
f 132/2/2 133/2/2 134/2/2
f 134/2/2 133/2/2 135/2/2
f 136/1/2 137/1/2 140/1/2
f 140/1/2 137/1/2 141/1/2
f 140/2/2 141/2/2 142/2/2
f 142/2/2 141/2/2 143/2/2
f 138/2/2 139/2/2 144/2/2
f 144/2/2 139/2/2 145/2/2
f 148/2/2 149/2/2 150/2/2
f 146/2/2 147/2/2 151/2/2
f 151/2/2 147/2/2 152/2/2
f 148/2/2 150/2/2 153/2/2
f 153/2/2 150/2/2 154/2/2
f 155/2/2 156/2/2 159/2/2
f 159/2/2 156/2/2 160/2/2
f 157/2/2 158/2/2 161/2/2
f 161/2/2 158/2/2 162/2/2
f 163/2/2 164/2/2 165/2/2
f 165/2/2 164/2/2 166/2/2
f 167/2/2 168/2/2 169/2/2
f 169/2/2 168/2/2 170/2/2
f 171/2/2 172/2/2 173/2/2
f 173/2/2 172/2/2 174/2/2
f 174/2/2 172/2/2 175/2/2
f 176/1/2 177/1/2 178/1/2
f 178/1/2 177/1/2 179/1/2
f 180/2/2 181/2/2 182/2/2
f 182/2/2 181/2/2 183/2/2
f 184/2/2 185/2/2 186/2/2
f 186/2/2 185/2/2 187/2/2
f 188/2/2 189/2/2 190/2/2
f 190/2/2 189/2/2 191/2/2
f 192/2/2 193/2/2 196/2/2
f 194/2/2 195/2/2 197/2/2
f 192/2/2 196/2/2 198/2/2
f 198/2/2 196/2/2 199/2/2
f 194/2/2 197/2/2 200/2/2
f 200/2/2 197/2/2 201/2/2
f 202/1/2 203/1/2 204/1/2
f 204/1/2 203/1/2 205/1/2
f 204/2/2 205/2/2 206/2/2
f 206/2/2 205/2/2 207/2/2
f 211/1/3 209/1/3 208/1/3
f 212/2/3 210/2/3 209/2/3
f 212/1/3 209/1/3 211/1/3
f 213/2/3 210/2/3 212/2/3
f 216/2/3 215/2/3 214/2/3
f 217/2/3 215/2/3 216/2/3
f 220/2/3 219/2/3 218/2/3
f 221/2/3 219/2/3 220/2/3
f 224/2/3 223/2/3 222/2/3
f 225/2/3 223/2/3 224/2/3
f 228/2/3 227/2/3 226/2/3
f 229/2/3 227/2/3 228/2/3
f 232/1/3 231/1/3 230/1/3
f 233/1/3 231/1/3 232/1/3
f 236/2/3 235/2/3 234/2/3
f 237/2/3 235/2/3 236/2/3
f 240/2/3 239/2/3 238/2/3
f 241/2/3 239/2/3 240/2/3
f 244/2/3 243/2/3 242/2/3
f 245/2/3 243/2/3 244/2/3
f 249/1/3 247/1/3 246/1/3
f 250/2/3 248/2/3 247/2/3
f 250/1/3 247/1/3 249/1/3
f 251/2/3 248/2/3 250/2/3
f 254/2/3 253/2/3 252/2/3
f 255/2/3 253/2/3 254/2/3
f 258/2/3 257/2/3 256/2/3
f 259/2/3 257/2/3 258/2/3
f 262/2/3 261/2/3 260/2/3
f 263/2/3 261/2/3 262/2/3
f 266/2/3 265/2/3 264/2/3
f 267/2/3 265/2/3 266/2/3
f 270/2/3 269/2/3 268/2/3
f 271/2/3 269/2/3 270/2/3
f 274/2/3 273/2/3 272/2/3
f 275/2/3 273/2/3 274/2/3
f 278/2/3 277/2/3 276/2/3
f 279/2/3 277/2/3 278/2/3
f 282/2/3 281/2/3 280/2/3
f 283/2/3 281/2/3 282/2/3
f 286/2/3 285/2/3 284/2/3
f 287/2/3 285/2/3 286/2/3
f 291/1/3 289/1/3 288/1/3
f 292/2/3 290/2/3 289/2/3
f 292/1/3 289/1/3 291/1/3
f 293/2/3 290/2/3 292/2/3
f 296/2/3 295/2/3 294/2/3
f 297/2/3 295/2/3 296/2/3
f 301/1/3 299/1/3 298/1/3
f 302/2/3 300/2/3 299/2/3
f 302/1/3 299/1/3 301/1/3
f 303/2/3 300/2/3 302/2/3
f 307/1/3 305/1/3 304/1/3
f 308/2/3 306/2/3 305/2/3
f 308/1/3 305/1/3 307/1/3
f 309/2/3 306/2/3 308/2/3
f 313/1/3 311/1/3 310/1/3
f 314/2/3 312/2/3 311/2/3
f 314/1/3 311/1/3 313/1/3
f 315/2/3 312/2/3 314/2/3
f 316/1/4 317/1/4 319/1/4
f 317/2/4 318/2/4 320/2/4
f 319/1/4 317/1/4 320/1/4
f 320/2/4 318/2/4 321/2/4
f 322/1/4 323/1/4 325/1/4
f 323/2/4 324/2/4 326/2/4
f 325/1/4 323/1/4 326/1/4
f 326/2/4 324/2/4 327/2/4
f 328/1/4 329/1/4 331/1/4
f 329/2/4 330/2/4 332/2/4
f 331/1/4 329/1/4 332/1/4
f 332/2/4 330/2/4 333/2/4
f 334/2/4 335/2/4 336/2/4
f 336/2/4 335/2/4 337/2/4
f 338/1/4 339/1/4 341/1/4
f 339/2/4 340/2/4 342/2/4
f 341/1/4 339/1/4 342/1/4
f 342/2/4 340/2/4 343/2/4
f 344/2/4 345/2/4 347/2/4
f 346/2/4 347/2/4 348/2/4
f 347/2/4 345/2/4 349/2/4
f 348/2/4 347/2/4 349/2/4
f 350/2/4 351/2/4 352/2/4
f 352/2/4 351/2/4 353/2/4
f 354/2/4 355/2/4 356/2/4
f 356/2/4 355/2/4 357/2/4
f 358/2/4 359/2/4 360/2/4
f 360/2/4 359/2/4 361/2/4
f 362/1/4 363/1/4 365/1/4
f 363/2/4 364/2/4 366/2/4
f 365/1/4 363/1/4 366/1/4
f 366/2/4 364/2/4 367/2/4
f 368/2/4 369/2/4 370/2/4
f 370/2/4 369/2/4 371/2/4
f 372/2/4 373/2/4 374/2/4
f 374/2/4 373/2/4 375/2/4
f 376/2/4 377/2/4 378/2/4
f 378/2/4 377/2/4 379/2/4
f 380/2/4 381/2/4 382/2/4
f 382/2/4 381/2/4 383/2/4
f 384/2/4 385/2/4 386/2/4
f 386/2/4 385/2/4 387/2/4
f 388/2/4 389/2/4 390/2/4
f 390/2/4 389/2/4 391/2/4
f 392/2/4 393/2/4 394/2/4
f 394/2/4 393/2/4 395/2/4
f 396/2/4 397/2/4 398/2/4
f 398/2/4 397/2/4 399/2/4
f 400/2/4 401/2/4 402/2/4
f 402/2/4 401/2/4 403/2/4
f 404/2/4 405/2/4 406/2/4
f 406/2/4 405/2/4 407/2/4
f 406/1/4 407/1/4 408/1/4
f 407/2/4 405/2/4 409/2/4
f 408/1/4 407/1/4 409/1/4
f 409/2/4 405/2/4 410/2/4
f 411/1/4 412/1/4 414/1/4
f 412/2/4 413/2/4 415/2/4
f 414/1/4 412/1/4 415/1/4
f 415/2/4 413/2/4 416/2/4
f 419/1/5 418/1/5 417/1/5
f 420/1/5 418/1/5 419/1/5
f 421/1/5 419/1/5 417/1/5
f 421/2/5 420/2/5 419/2/5
f 422/1/5 418/1/5 420/1/5
f 422/2/5 420/2/5 421/2/5
f 423/1/5 418/1/5 422/1/5
f 424/1/5 421/1/5 417/1/5
f 425/2/5 423/2/5 422/2/5
f 426/1/5 418/1/5 423/1/5
f 426/2/5 423/2/5 425/2/5
f 427/1/5 425/1/5 424/1/5
f 427/1/5 424/1/5 417/1/5
f 427/1/5 426/1/5 425/1/5
f 428/1/5 418/1/5 426/1/5
f 428/1/5 426/1/5 427/1/5
f 431/1/6 432/1/6 435/1/6
f 435/1/6 432/1/6 436/1/6
f 431/1/6 435/1/6 437/1/6
f 433/1/6 434/1/6 438/1/6
f 438/1/6 434/1/6 439/1/6
f 439/1/6 434/1/6 440/1/6
f 440/1/6 434/1/6 441/1/6
f 441/1/6 434/1/6 442/1/6
f 431/1/6 437/1/6 443/1/6
f 437/1/6 438/1/6 443/1/6
f 438/1/6 439/1/6 443/1/6
f 443/1/6 439/1/6 444/1/6
f 429/1/6 430/1/6 445/1/6
f 431/1/6 443/1/6 446/1/6
f 447/1/6 448/1/6 449/1/6
f 447/1/6 449/1/6 451/1/6
f 449/1/6 450/1/6 451/1/6
f 451/1/6 450/1/6 452/1/6
f 429/1/6 445/1/6 453/1/6
f 445/1/6 446/1/6 453/1/6
f 446/1/6 443/1/6 454/1/6
f 453/1/6 446/1/6 454/1/6
f 447/1/6 451/1/6 455/1/6
f 440/1/6 441/1/6 456/1/6
f 455/1/6 456/1/6 459/1/6
f 456/1/6 441/1/6 460/1/6
f 459/1/6 456/1/6 460/1/6
f 429/1/6 453/1/6 461/1/6
f 461/1/6 453/1/6 462/1/6
f 447/1/6 455/1/6 463/1/6
f 455/1/6 459/1/6 463/1/6
f 463/1/6 459/1/6 464/1/6
f 464/1/6 459/1/6 465/1/6
f 457/1/6 458/1/6 469/1/6
f 457/1/6 469/1/6 471/1/6
f 469/1/6 470/1/6 471/1/6
f 471/1/6 470/1/6 472/1/6
f 465/1/6 466/1/6 473/1/6
f 464/1/6 465/1/6 473/1/6
f 473/1/6 466/1/6 474/1/6
f 467/1/6 468/1/6 475/1/6
f 472/1/6 470/1/6 476/1/6
f 476/1/6 470/1/6 477/1/6
f 475/1/6 476/1/6 479/1/6
f 477/1/6 478/1/6 479/1/6
f 476/1/6 477/1/6 479/1/6
f 479/1/6 478/1/6 480/1/6
f 480/1/6 478/1/6 483/1/6
f 474/1/6 466/1/6 484/1/6
f 467/1/6 475/1/6 485/1/6
f 475/1/6 479/1/6 485/1/6
f 485/1/6 479/1/6 486/1/6
f 481/1/6 482/1/6 488/1/6
f 487/1/6 488/1/6 489/1/6
f 488/1/6 482/1/6 490/1/6
f 489/1/6 488/1/6 490/1/6
f 483/1/6 484/1/6 491/1/6
f 484/1/6 466/1/6 491/1/6
f 491/1/6 466/1/6 492/1/6
f 487/1/6 489/1/6 493/1/6
f 467/1/6 485/1/6 495/1/6
f 493/1/6 494/1/6 496/1/6
f 487/1/6 493/1/6 496/1/6
f 496/1/6 494/1/6 497/1/6
f 497/1/6 494/1/6 498/1/6
f 480/1/6 483/1/6 499/1/6
f 483/1/6 491/1/6 499/1/6
f 499/1/6 491/1/6 500/1/6
f 498/1/6 494/1/6 501/1/6
f 492/1/6 466/1/6 502/1/6
f 442/1/6 434/1/6 503/1/6
f 503/1/6 434/1/6 504/1/6
f 501/1/6 502/1/6 505/1/6
f 502/1/6 466/1/6 505/1/6
f 501/1/6 505/1/6 508/1/6
f 506/1/6 507/1/6 508/1/6
f 505/1/6 506/1/6 508/1/6
f 508/1/6 507/1/6 509/1/6
f 496/1/6 497/1/6 510/1/6
f 467/1/6 495/1/6 510/1/6
f 495/1/6 496/1/6 510/1/6
f 510/1/6 497/1/6 511/1/6
f 498/1/6 501/1/6 512/1/6
f 501/1/6 508/1/6 512/1/6
f 512/1/6 508/1/6 513/1/6
f 509/1/6 507/1/6 514/1/6
f 514/1/6 507/1/6 515/1/6
f 516/2/6 517/2/6 518/2/6
f 518/2/6 517/2/6 519/2/6
f 519/2/6 517/2/6 520/2/6
f 520/2/6 517/2/6 521/2/6
f 521/2/6 517/2/6 522/2/6
f 522/2/6 517/2/6 523/2/6
f 521/2/6 522/2/6 525/2/6
f 524/2/6 525/2/6 526/2/6
f 525/2/6 522/2/6 527/2/6
f 526/2/6 525/2/6 527/2/6
f 528/2/6 529/2/6 533/2/6
f 519/2/6 520/2/6 534/2/6
f 534/2/6 520/2/6 535/2/6
f 532/2/6 533/2/6 536/2/6
f 533/2/6 529/2/6 537/2/6
f 536/2/6 533/2/6 537/2/6
f 537/2/6 529/2/6 539/2/6
f 532/2/6 536/2/6 541/2/6
f 538/2/6 539/2/6 542/2/6
f 539/2/6 529/2/6 543/2/6
f 542/2/6 539/2/6 543/2/6
f 540/2/6 541/2/6 544/2/6
f 541/2/6 536/2/6 545/2/6
f 544/2/6 541/2/6 545/2/6
f 530/2/6 531/2/6 547/2/6
f 516/2/6 518/2/6 548/2/6
f 540/2/6 544/2/6 549/2/6
f 545/2/6 536/2/6 550/2/6
f 546/2/6 547/2/6 552/2/6
f 547/2/6 531/2/6 553/2/6
f 552/2/6 547/2/6 553/2/6
f 548/2/6 549/2/6 554/2/6
f 516/2/6 548/2/6 554/2/6
f 549/2/6 544/2/6 555/2/6
f 554/2/6 549/2/6 555/2/6
f 550/2/6 551/2/6 556/2/6
f 545/2/6 550/2/6 556/2/6
f 556/2/6 551/2/6 557/2/6
f 555/2/6 544/2/6 558/2/6
f 557/2/6 551/2/6 560/2/6
f 558/2/6 559/2/6 562/2/6
f 555/2/6 558/2/6 562/2/6
f 562/2/6 559/2/6 563/2/6
f 560/2/6 561/2/6 564/2/6
f 557/2/6 560/2/6 564/2/6
f 564/2/6 561/2/6 565/2/6
f 566/2/6 567/2/6 568/2/6
f 568/2/6 567/2/6 569/2/6
f 565/2/6 561/2/6 570/2/6
f 570/2/6 561/2/6 571/2/6
f 566/2/6 568/2/6 573/2/6
f 572/2/6 573/2/6 574/2/6
f 573/2/6 568/2/6 575/2/6
f 574/2/6 573/2/6 575/2/6
f 569/2/6 567/2/6 577/2/6
f 576/2/6 577/2/6 580/2/6
f 577/2/6 567/2/6 581/2/6
f 580/2/6 577/2/6 581/2/6
f 572/2/6 574/2/6 582/2/6
f 582/2/6 574/2/6 583/2/6
f 581/2/6 567/2/6 586/2/6
f 578/2/6 579/2/6 587/2/6
f 581/2/6 586/2/6 588/2/6
f 586/2/6 587/2/6 588/2/6
f 587/2/6 579/2/6 589/2/6
f 588/2/6 587/2/6 589/2/6
f 553/2/6 531/2/6 590/2/6
f 523/2/6 517/2/6 591/2/6
f 553/2/6 590/2/6 592/2/6
f 590/2/6 591/2/6 592/2/6
f 591/2/6 517/2/6 593/2/6
f 592/2/6 591/2/6 593/2/6
f 516/2/6 554/2/6 596/2/6
f 584/2/6 585/2/6 597/2/6
f 597/2/6 585/2/6 598/2/6
f 594/2/6 595/2/6 599/2/6
f 599/2/6 595/2/6 600/2/6
f 593/2/6 517/2/6 601/2/6
f 516/2/6 596/2/6 602/2/6
f 600/2/6 601/2/6 602/2/6
f 597/2/6 598/2/6 602/2/6
f 599/2/6 600/2/6 602/2/6
f 598/2/6 599/2/6 602/2/6
f 596/2/6 597/2/6 602/2/6
f 601/2/6 517/2/6 603/2/6
f 602/2/6 601/2/6 603/2/6
