# MagicaVoxel @ Ephtracy

# group
g Map 4

# material
mtllib Map 4.mtl
usemtl palette

# normals
vn -1 0 0
vn 1 0 0
vn 0 0 1
vn 0 0 -1
vn 0 -1 0
vn 0 1 0

# texcoords
vt 0.306641 0.5
vt 0.986328 0.5

# verts
v -30 0 25
v -30 0 -25
v -30 13 25
v -30 13 -25
v -30 14 25
v -30 14 -25
v -27 1 -2
v -27 1 -6
v -27 14 -2
v -27 14 -6
v -22 1 24
v -22 1 17
v -22 13 24
v -22 14 24
v -22 14 17
v -20 1 -0
v -20 1 -9
v -20 14 -0
v -20 14 -9
v -17 1 22
v -17 1 16
v -17 1 12
v -17 1 2
v -17 1 -4
v -17 1 -24
v -17 13 -24
v -17 14 22
v -17 14 16
v -17 14 12
v -17 14 2
v -17 14 -4
v -17 14 -24
v -13 1 15
v -13 1 14
v -13 14 15
v -13 14 14
v -10 1 9
v -10 1 -5
v -10 1 -10
v -10 1 -24
v -10 13 -24
v -10 14 9
v -10 14 -5
v -10 14 -10
v -10 14 -24
v -3 1 21
v -3 1 15
v -3 14 21
v -3 14 15
v -2 1 3
v -2 1 -4
v -2 14 3
v -2 14 -4
v -1 0 16
v -1 0 15
v -1 1 16
v -1 1 15
v 4 1 -4
v 4 1 -5
v 4 14 -4
v 4 14 -5
v 5 1 2
v 5 1 -4
v 5 14 2
v 5 14 -4
v 6 1 24
v 6 1 15
v 6 13 24
v 6 14 24
v 6 14 15
v 18 1 8
v 18 1 -4
v 18 1 -11
v 18 1 -24
v 18 13 -24
v 18 14 8
v 18 14 -4
v 18 14 -11
v 18 14 -24
v 29 1 24
v 29 1 -24
v 29 13 24
v 29 13 -24
v 29 14 24
v 29 14 -24
v -29 1 24
v -29 1 17
v -29 1 16
v -29 1 13
v -29 1 12
v -29 1 2
v -29 1 1
v -29 1 -9
v -29 1 -10
v -29 1 -24
v -29 13 24
v -29 13 17
v -29 13 16
v -29 13 13
v -29 13 12
v -29 13 2
v -29 13 1
v -29 13 -9
v -29 13 -10
v -29 13 -24
v -29 14 24
v -29 14 17
v -29 14 16
v -29 14 13
v -29 14 12
v -29 14 2
v -29 14 1
v -29 14 -9
v -29 14 -10
v -29 14 -24
v -26 1 -2
v -26 1 -5
v -26 14 -2
v -26 14 -5
v -23 1 -5
v -23 1 -6
v -23 14 -5
v -23 14 -6
v -21 1 24
v -21 1 16
v -21 13 24
v -21 14 24
v -21 14 16
v -19 1 -4
v -19 1 -10
v -19 14 -4
v -19 14 -10
v -16 1 21
v -16 1 16
v -16 1 13
v -16 1 1
v -16 1 -0
v -16 1 -24
v -16 13 -24
v -16 14 21
v -16 14 16
v -16 14 13
v -16 14 1
v -16 14 -0
v -16 14 -24
v -9 1 8
v -9 1 -4
v -9 1 -11
v -9 1 -24
v -9 13 -24
v -9 14 8
v -9 14 -4
v -9 14 -11
v -9 14 -24
v -2 0 16
v -2 0 15
v -2 1 22
v -2 1 16
v -2 14 22
v -2 14 15
v -1 1 2
v -1 1 -4
v -1 14 2
v -1 14 -4
v 2 1 -4
v 2 1 -5
v 2 14 -4
v 2 14 -5
v 6 1 3
v 6 1 -4
v 6 14 3
v 6 14 -4
v 7 1 24
v 7 1 14
v 7 13 24
v 7 14 24
v 7 14 14
v 19 1 9
v 19 1 -5
v 19 1 -10
v 19 1 -24
v 19 13 -24
v 19 14 9
v 19 14 -5
v 19 14 -10
v 19 14 -24
v 30 0 25
v 30 0 -25
v 30 13 25
v 30 13 -25
v 30 14 25
v 30 14 -25
v -30 0 25
v -30 13 25
v -30 14 25
v 30 0 25
v 30 13 25
v 30 14 25
v -17 1 22
v -17 14 22
v -2 1 22
v -2 14 22
v -29 1 17
v -29 13 17
v -29 14 17
v -22 1 17
v -22 14 17
v -13 1 15
v -13 14 15
v -3 1 15
v -3 14 15
v -2 0 15
v -2 14 15
v -1 0 15
v -1 1 15
v 6 1 15
v 6 14 15
v -29 1 13
v -29 13 13
v -29 14 13
v -16 1 13
v -16 14 13
v -10 1 9
v -10 14 9
v 19 1 9
v 19 14 9
v -2 1 3
v -2 14 3
v 6 1 3
v 6 14 3
v -29 1 2
v -29 13 2
v -29 14 2
v -17 1 2
v -17 14 2
v -20 1 -0
v -20 14 -0
v -16 1 -0
v -16 14 -0
v -27 1 -2
v -27 14 -2
v -26 1 -2
v -26 14 -2
v -9 1 -4
v -9 14 -4
v -2 1 -4
v -2 14 -4
v -1 1 -4
v -1 14 -4
v 2 1 -4
v 2 14 -4
v 4 1 -4
v 4 14 -4
v 5 1 -4
v 5 14 -4
v 6 1 -4
v 6 14 -4
v 18 1 -4
v 18 14 -4
v -26 1 -5
v -26 14 -5
v -23 1 -5
v -23 14 -5
v -29 1 -9
v -29 13 -9
v -29 14 -9
v -20 1 -9
v -20 14 -9
v -10 1 -10
v -10 14 -10
v 19 1 -10
v 19 14 -10
v -29 1 -24
v -29 13 -24
v -29 14 -24
v -17 1 -24
v -17 13 -24
v -17 14 -24
v -16 1 -24
v -16 13 -24
v -16 14 -24
v -10 1 -24
v -10 13 -24
v -10 14 -24
v -9 1 -24
v -9 13 -24
v -9 14 -24
v 18 1 -24
v 18 13 -24
v 18 14 -24
v 19 1 -24
v 19 13 -24
v 19 14 -24
v 29 1 -24
v 29 13 -24
v 29 14 -24
v -29 1 24
v -29 13 24
v -29 14 24
v -22 1 24
v -22 13 24
v -22 14 24
v -21 1 24
v -21 13 24
v -21 14 24
v 6 1 24
v 6 13 24
v 6 14 24
v 7 1 24
v 7 13 24
v 7 14 24
v 29 1 24
v 29 13 24
v 29 14 24
v -16 1 21
v -16 14 21
v -3 1 21
v -3 14 21
v -29 1 16
v -29 13 16
v -29 14 16
v -21 1 16
v -21 14 16
v -17 1 16
v -17 14 16
v -16 1 16
v -16 14 16
v -2 0 16
v -2 1 16
v -1 0 16
v -1 1 16
v -13 1 14
v -13 14 14
v 7 1 14
v 7 14 14
v -29 1 12
v -29 13 12
v -29 14 12
v -17 1 12
v -17 14 12
v -9 1 8
v -9 14 8
v 18 1 8
v 18 14 8
v -1 1 2
v -1 14 2
v 5 1 2
v 5 14 2
v -29 1 1
v -29 13 1
v -29 14 1
v -16 1 1
v -16 14 1
v -19 1 -4
v -19 14 -4
v -17 1 -4
v -17 14 -4
v -10 1 -5
v -10 14 -5
v 2 1 -5
v 2 14 -5
v 4 1 -5
v 4 14 -5
v 19 1 -5
v 19 14 -5
v -27 1 -6
v -27 14 -6
v -23 1 -6
v -23 14 -6
v -29 1 -10
v -29 13 -10
v -29 14 -10
v -19 1 -10
v -19 14 -10
v -9 1 -11
v -9 14 -11
v 18 1 -11
v 18 14 -11
v -30 0 -25
v -30 13 -25
v -30 14 -25
v 30 0 -25
v 30 13 -25
v 30 14 -25
v -30 0 25
v 30 0 25
v -22 0 24
v -21 0 24
v 6 0 24
v 7 0 24
v -17 0 22
v -2 0 22
v -16 0 21
v -3 0 21
v -29 0 17
v -22 0 17
v -29 0 16
v -21 0 16
v -17 0 16
v -16 0 16
v -2 0 16
v -1 0 16
v -13 0 15
v -3 0 15
v -2 0 15
v -1 0 15
v 6 0 15
v -13 0 14
v 7 0 14
v -29 0 13
v -16 0 13
v -29 0 12
v -17 0 12
v -10 0 9
v 19 0 9
v -9 0 8
v 18 0 8
v -2 0 3
v 6 0 3
v -29 0 2
v -17 0 2
v -1 0 2
v 5 0 2
v -29 0 1
v -16 0 1
v -20 0 -0
v -16 0 -0
v -19 0 -1
v -17 0 -1
v -27 0 -2
v -26 0 -2
v -19 0 -3
v -17 0 -3
v -19 0 -4
v -17 0 -4
v -9 0 -4
v -2 0 -4
v -1 0 -4
v 2 0 -4
v 4 0 -4
v 5 0 -4
v 6 0 -4
v 18 0 -4
v -26 0 -5
v -23 0 -5
v -10 0 -5
v 2 0 -5
v 4 0 -5
v 19 0 -5
v -27 0 -6
v -23 0 -6
v -29 0 -9
v -20 0 -9
v -29 0 -10
v -19 0 -10
v -10 0 -10
v 19 0 -10
v -9 0 -11
v 18 0 -11
v -17 0 -24
v -16 0 -24
v -10 0 -24
v -9 0 -24
v 18 0 -24
v 19 0 -24
v -30 0 -25
v 30 0 -25
v -29 1 24
v -22 1 24
v -21 1 24
v 6 1 24
v 7 1 24
v 29 1 24
v -17 1 22
v -2 1 22
v -16 1 21
v -3 1 21
v -29 1 17
v -22 1 17
v -29 1 16
v -21 1 16
v -17 1 16
v -16 1 16
v -2 1 16
v -1 1 16
v -13 1 15
v -3 1 15
v -1 1 15
v 6 1 15
v -13 1 14
v 7 1 14
v -29 1 13
v -16 1 13
v -29 1 12
v -17 1 12
v -10 1 9
v 19 1 9
v -9 1 8
v 18 1 8
v -2 1 3
v 6 1 3
v -29 1 2
v -17 1 2
v -1 1 2
v 5 1 2
v -29 1 1
v -16 1 1
v -20 1 -0
v -16 1 -0
v -27 1 -2
v -26 1 -2
v -19 1 -4
v -17 1 -4
v -9 1 -4
v -2 1 -4
v -1 1 -4
v 2 1 -4
v 4 1 -4
v 5 1 -4
v 6 1 -4
v 18 1 -4
v -26 1 -5
v -23 1 -5
v -10 1 -5
v 2 1 -5
v 4 1 -5
v 19 1 -5
v -27 1 -6
v -23 1 -6
v -29 1 -9
v -20 1 -9
v -29 1 -10
v -19 1 -10
v -10 1 -10
v 19 1 -10
v -9 1 -11
v 18 1 -11
v -29 1 -24
v -17 1 -24
v -16 1 -24
v -10 1 -24
v -9 1 -24
v 18 1 -24
v 19 1 -24
v 29 1 -24
v -30 14 25
v 30 14 25
v -29 14 24
v -22 14 24
v -21 14 24
v 6 14 24
v 7 14 24
v 29 14 24
v -17 14 22
v -2 14 22
v -16 14 21
v -3 14 21
v -29 14 17
v -22 14 17
v -29 14 16
v -21 14 16
v -17 14 16
v -16 14 16
v -13 14 15
v -3 14 15
v -2 14 15
v 6 14 15
v -13 14 14
v 7 14 14
v -29 14 13
v -16 14 13
v -29 14 12
v -17 14 12
v -10 14 9
v 19 14 9
v -9 14 8
v 18 14 8
v -2 14 3
v 6 14 3
v -29 14 2
v -17 14 2
v -1 14 2
v 5 14 2
v -29 14 1
v -16 14 1
v -20 14 -0
v -16 14 -0
v -27 14 -2
v -26 14 -2
v -19 14 -4
v -17 14 -4
v -9 14 -4
v -2 14 -4
v -1 14 -4
v 2 14 -4
v 4 14 -4
v 5 14 -4
v 6 14 -4
v 18 14 -4
v -26 14 -5
v -23 14 -5
v -10 14 -5
v 2 14 -5
v 4 14 -5
v 19 14 -5
v -27 14 -6
v -23 14 -6
v -29 14 -9
v -20 14 -9
v -29 14 -10
v -19 14 -10
v -10 14 -10
v 19 14 -10
v -9 14 -11
v 18 14 -11
v -29 14 -24
v -17 14 -24
v -16 14 -24
v -10 14 -24
v -9 14 -24
v 18 14 -24
v 19 14 -24
v 29 14 -24
v -30 14 -25
v 30 14 -25

# faces
f 3/1/1 2/1/1 1/1/1
f 4/1/1 2/1/1 3/1/1
f 5/2/1 4/2/1 3/2/1
f 6/2/1 4/2/1 5/2/1
f 9/2/1 8/2/1 7/2/1
f 10/2/1 8/2/1 9/2/1
f 13/2/1 12/2/1 11/2/1
f 14/2/1 12/2/1 13/2/1
f 15/2/1 12/2/1 14/2/1
f 18/2/1 17/2/1 16/2/1
f 19/2/1 17/2/1 18/2/1
f 26/2/1 25/2/1 24/2/1
f 27/2/1 21/2/1 20/2/1
f 28/2/1 21/2/1 27/2/1
f 29/2/1 23/2/1 22/2/1
f 30/2/1 23/2/1 29/2/1
f 31/2/1 26/2/1 24/2/1
f 32/2/1 26/2/1 31/2/1
f 35/2/1 34/2/1 33/2/1
f 36/2/1 34/2/1 35/2/1
f 41/2/1 40/2/1 39/2/1
f 42/2/1 38/2/1 37/2/1
f 43/2/1 38/2/1 42/2/1
f 44/2/1 41/2/1 39/2/1
f 45/2/1 41/2/1 44/2/1
f 48/2/1 47/2/1 46/2/1
f 49/2/1 47/2/1 48/2/1
f 52/2/1 51/2/1 50/2/1
f 53/2/1 51/2/1 52/2/1
f 56/1/1 55/1/1 54/1/1
f 57/1/1 55/1/1 56/1/1
f 60/2/1 59/2/1 58/2/1
f 61/2/1 59/2/1 60/2/1
f 64/2/1 63/2/1 62/2/1
f 65/2/1 63/2/1 64/2/1
f 68/2/1 67/2/1 66/2/1
f 69/2/1 67/2/1 68/2/1
f 70/2/1 67/2/1 69/2/1
f 75/2/1 74/2/1 73/2/1
f 76/2/1 72/2/1 71/2/1
f 77/2/1 72/2/1 76/2/1
f 78/2/1 75/2/1 73/2/1
f 79/2/1 75/2/1 78/2/1
f 82/1/1 81/1/1 80/1/1
f 83/1/1 81/1/1 82/1/1
f 84/2/1 83/2/1 82/2/1
f 85/2/1 83/2/1 84/2/1
f 86/1/2 87/1/2 96/1/2
f 96/1/2 87/1/2 97/1/2
f 88/1/2 89/1/2 98/1/2
f 98/1/2 89/1/2 99/1/2
f 90/1/2 91/1/2 100/1/2
f 100/1/2 91/1/2 101/1/2
f 92/1/2 93/1/2 102/1/2
f 102/1/2 93/1/2 103/1/2
f 94/1/2 95/1/2 104/1/2
f 104/1/2 95/1/2 105/1/2
f 96/2/2 97/2/2 106/2/2
f 106/2/2 97/2/2 107/2/2
f 98/2/2 99/2/2 108/2/2
f 108/2/2 99/2/2 109/2/2
f 100/2/2 101/2/2 110/2/2
f 110/2/2 101/2/2 111/2/2
f 102/2/2 103/2/2 112/2/2
f 112/2/2 103/2/2 113/2/2
f 104/2/2 105/2/2 114/2/2
f 114/2/2 105/2/2 115/2/2
f 116/2/2 117/2/2 118/2/2
f 118/2/2 117/2/2 119/2/2
f 120/2/2 121/2/2 122/2/2
f 122/2/2 121/2/2 123/2/2
f 124/2/2 125/2/2 126/2/2
f 126/2/2 125/2/2 127/2/2
f 127/2/2 125/2/2 128/2/2
f 129/2/2 130/2/2 131/2/2
f 131/2/2 130/2/2 132/2/2
f 137/2/2 138/2/2 139/2/2
f 133/2/2 134/2/2 140/2/2
f 140/2/2 134/2/2 141/2/2
f 135/2/2 136/2/2 142/2/2
f 142/2/2 136/2/2 143/2/2
f 137/2/2 139/2/2 144/2/2
f 144/2/2 139/2/2 145/2/2
f 148/2/2 149/2/2 150/2/2
f 146/2/2 147/2/2 151/2/2
f 151/2/2 147/2/2 152/2/2
f 148/2/2 150/2/2 153/2/2
f 153/2/2 150/2/2 154/2/2
f 155/2/2 156/2/2 158/2/2
f 157/2/2 158/2/2 159/2/2
f 158/2/2 156/2/2 160/2/2
f 159/2/2 158/2/2 160/2/2
f 161/2/2 162/2/2 163/2/2
f 163/2/2 162/2/2 164/2/2
f 165/2/2 166/2/2 167/2/2
f 167/2/2 166/2/2 168/2/2
f 169/2/2 170/2/2 171/2/2
f 171/2/2 170/2/2 172/2/2
f 173/2/2 174/2/2 175/2/2
f 175/2/2 174/2/2 176/2/2
f 176/2/2 174/2/2 177/2/2
f 180/2/2 181/2/2 182/2/2
f 178/2/2 179/2/2 183/2/2
f 183/2/2 179/2/2 184/2/2
f 180/2/2 182/2/2 185/2/2
f 185/2/2 182/2/2 186/2/2
f 187/1/2 188/1/2 189/1/2
f 189/1/2 188/1/2 190/1/2
f 189/2/2 190/2/2 191/2/2
f 191/2/2 190/2/2 192/2/2
f 196/1/3 194/1/3 193/1/3
f 197/2/3 195/2/3 194/2/3
f 197/1/3 194/1/3 196/1/3
f 198/2/3 195/2/3 197/2/3
f 201/2/3 200/2/3 199/2/3
f 202/2/3 200/2/3 201/2/3
f 206/2/3 204/2/3 203/2/3
f 206/2/3 205/2/3 204/2/3
f 207/2/3 205/2/3 206/2/3
f 210/2/3 209/2/3 208/2/3
f 211/2/3 209/2/3 210/2/3
f 214/2/3 213/2/3 212/2/3
f 215/2/3 213/2/3 214/2/3
f 216/2/3 213/2/3 215/2/3
f 217/2/3 213/2/3 216/2/3
f 221/2/3 219/2/3 218/2/3
f 221/2/3 220/2/3 219/2/3
f 222/2/3 220/2/3 221/2/3
f 225/2/3 224/2/3 223/2/3
f 226/2/3 224/2/3 225/2/3
f 229/2/3 228/2/3 227/2/3
f 230/2/3 228/2/3 229/2/3
f 234/2/3 232/2/3 231/2/3
f 234/2/3 233/2/3 232/2/3
f 235/2/3 233/2/3 234/2/3
f 238/2/3 237/2/3 236/2/3
f 239/2/3 237/2/3 238/2/3
f 242/2/3 241/2/3 240/2/3
f 243/2/3 241/2/3 242/2/3
f 246/2/3 245/2/3 244/2/3
f 247/2/3 245/2/3 246/2/3
f 250/2/3 249/2/3 248/2/3
f 251/2/3 249/2/3 250/2/3
f 254/2/3 253/2/3 252/2/3
f 255/2/3 253/2/3 254/2/3
f 258/2/3 257/2/3 256/2/3
f 259/2/3 257/2/3 258/2/3
f 262/2/3 261/2/3 260/2/3
f 263/2/3 261/2/3 262/2/3
f 267/2/3 265/2/3 264/2/3
f 267/2/3 266/2/3 265/2/3
f 268/2/3 266/2/3 267/2/3
f 271/2/3 270/2/3 269/2/3
f 272/2/3 270/2/3 271/2/3
f 276/1/3 274/1/3 273/1/3
f 277/2/3 275/2/3 274/2/3
f 277/1/3 274/1/3 276/1/3
f 278/2/3 275/2/3 277/2/3
f 282/1/3 280/1/3 279/1/3
f 283/2/3 281/2/3 280/2/3
f 283/1/3 280/1/3 282/1/3
f 284/2/3 281/2/3 283/2/3
f 288/1/3 286/1/3 285/1/3
f 289/2/3 287/2/3 286/2/3
f 289/1/3 286/1/3 288/1/3
f 290/2/3 287/2/3 289/2/3
f 294/1/3 292/1/3 291/1/3
f 295/2/3 293/2/3 292/2/3
f 295/1/3 292/1/3 294/1/3
f 296/2/3 293/2/3 295/2/3
f 297/1/4 298/1/4 300/1/4
f 298/2/4 299/2/4 301/2/4
f 300/1/4 298/1/4 301/1/4
f 301/2/4 299/2/4 302/2/4
f 303/1/4 304/1/4 306/1/4
f 304/2/4 305/2/4 307/2/4
f 306/1/4 304/1/4 307/1/4
f 307/2/4 305/2/4 308/2/4
f 309/1/4 310/1/4 312/1/4
f 310/2/4 311/2/4 313/2/4
f 312/1/4 310/1/4 313/1/4
f 313/2/4 311/2/4 314/2/4
f 315/2/4 316/2/4 317/2/4
f 317/2/4 316/2/4 318/2/4
f 319/2/4 320/2/4 322/2/4
f 320/2/4 321/2/4 322/2/4
f 322/2/4 321/2/4 323/2/4
f 324/2/4 325/2/4 326/2/4
f 326/2/4 325/2/4 327/2/4
f 328/1/4 329/1/4 330/1/4
f 330/1/4 329/1/4 331/1/4
f 332/2/4 333/2/4 334/2/4
f 334/2/4 333/2/4 335/2/4
f 336/2/4 337/2/4 339/2/4
f 337/2/4 338/2/4 339/2/4
f 339/2/4 338/2/4 340/2/4
f 341/2/4 342/2/4 343/2/4
f 343/2/4 342/2/4 344/2/4
f 345/2/4 346/2/4 347/2/4
f 347/2/4 346/2/4 348/2/4
f 349/2/4 350/2/4 352/2/4
f 350/2/4 351/2/4 352/2/4
f 352/2/4 351/2/4 353/2/4
f 354/2/4 355/2/4 356/2/4
f 356/2/4 355/2/4 357/2/4
f 358/2/4 359/2/4 360/2/4
f 360/2/4 359/2/4 361/2/4
f 362/2/4 363/2/4 364/2/4
f 364/2/4 363/2/4 365/2/4
f 366/2/4 367/2/4 368/2/4
f 368/2/4 367/2/4 369/2/4
f 370/2/4 371/2/4 373/2/4
f 371/2/4 372/2/4 373/2/4
f 373/2/4 372/2/4 374/2/4
f 375/2/4 376/2/4 377/2/4
f 377/2/4 376/2/4 378/2/4
f 379/1/4 380/1/4 382/1/4
f 380/2/4 381/2/4 383/2/4
f 382/1/4 380/1/4 383/1/4
f 383/2/4 381/2/4 384/2/4
f 387/1/5 386/1/5 385/1/5
f 388/1/5 386/1/5 387/1/5
f 389/1/5 386/1/5 388/1/5
f 390/1/5 386/1/5 389/1/5
f 391/1/5 389/1/5 388/1/5
f 392/1/5 389/1/5 391/1/5
f 393/2/5 392/2/5 391/2/5
f 394/2/5 392/2/5 393/2/5
f 395/1/5 387/1/5 385/1/5
f 396/2/5 388/2/5 387/2/5
f 396/1/5 387/1/5 395/1/5
f 397/1/5 395/1/5 385/1/5
f 397/2/5 396/2/5 395/2/5
f 398/2/5 388/2/5 396/2/5
f 398/2/5 396/2/5 397/2/5
f 398/1/5 391/1/5 388/1/5
f 399/2/5 393/2/5 391/2/5
f 399/1/5 391/1/5 398/1/5
f 400/1/5 394/1/5 393/1/5
f 400/2/5 393/2/5 399/2/5
f 401/2/5 392/2/5 394/2/5
f 401/1/5 389/1/5 392/1/5
f 402/1/5 389/1/5 401/1/5
f 403/1/5 394/1/5 400/1/5
f 403/1/5 399/1/5 398/1/5
f 403/1/5 400/1/5 399/1/5
f 403/1/5 398/1/5 397/1/5
f 404/2/5 401/2/5 394/2/5
f 404/1/5 394/1/5 403/1/5
f 405/2/5 401/2/5 404/2/5
f 406/1/5 389/1/5 402/1/5
f 407/2/5 390/2/5 389/2/5
f 407/1/5 389/1/5 406/1/5
f 408/2/5 405/2/5 404/2/5
f 408/2/5 406/2/5 405/2/5
f 408/2/5 407/2/5 406/2/5
f 408/1/5 403/1/5 397/1/5
f 408/2/5 404/2/5 403/2/5
f 409/2/5 390/2/5 407/2/5
f 409/2/5 407/2/5 408/2/5
f 409/1/5 386/1/5 390/1/5
f 410/1/5 408/1/5 397/1/5
f 410/1/5 397/1/5 385/1/5
f 410/1/5 409/1/5 408/1/5
f 411/1/5 409/1/5 410/1/5
f 412/1/5 410/1/5 385/1/5
f 412/2/5 411/2/5 410/2/5
f 413/2/5 411/2/5 412/2/5
f 414/1/5 409/1/5 411/1/5
f 415/1/5 386/1/5 409/1/5
f 415/1/5 409/1/5 414/1/5
f 416/2/5 415/2/5 414/2/5
f 417/2/5 415/2/5 416/2/5
f 418/1/5 417/1/5 416/1/5
f 419/1/5 417/1/5 418/1/5
f 420/1/5 412/1/5 385/1/5
f 420/1/5 413/1/5 412/1/5
f 421/2/5 411/2/5 413/2/5
f 421/1/5 413/1/5 420/1/5
f 422/2/5 419/2/5 418/2/5
f 423/2/5 419/2/5 422/2/5
f 424/1/5 420/1/5 385/1/5
f 424/2/5 421/2/5 420/2/5
f 425/1/5 414/1/5 411/1/5
f 425/2/5 421/2/5 424/2/5
f 425/2/5 411/2/5 421/2/5
f 426/1/5 425/1/5 424/1/5
f 427/1/5 414/1/5 425/1/5
f 427/1/5 425/1/5 426/1/5
f 428/2/5 427/2/5 426/2/5
f 429/2/5 427/2/5 428/2/5
f 430/1/5 426/1/5 424/1/5
f 431/1/5 426/1/5 430/1/5
f 432/2/5 428/2/5 426/2/5
f 432/1/5 429/1/5 428/1/5
f 433/2/5 427/2/5 429/2/5
f 433/1/5 429/1/5 432/1/5
f 434/2/5 432/2/5 426/2/5
f 434/2/5 433/2/5 432/2/5
f 435/2/5 427/2/5 433/2/5
f 435/2/5 433/2/5 434/2/5
f 436/2/5 416/2/5 414/2/5
f 436/1/5 418/1/5 416/1/5
f 437/2/5 422/2/5 418/2/5
f 437/1/5 418/1/5 436/1/5
f 438/1/5 423/1/5 422/1/5
f 438/2/5 422/2/5 437/2/5
f 439/1/5 423/1/5 438/1/5
f 440/1/5 423/1/5 439/1/5
f 441/2/5 419/2/5 423/2/5
f 441/1/5 423/1/5 440/1/5
f 442/1/5 417/1/5 419/1/5
f 442/2/5 419/2/5 441/2/5
f 443/2/5 415/2/5 417/2/5
f 443/1/5 417/1/5 442/1/5
f 444/1/5 426/1/5 431/1/5
f 444/2/5 431/2/5 430/2/5
f 445/1/5 426/1/5 444/1/5
f 446/2/5 436/2/5 414/2/5
f 446/2/5 437/2/5 436/2/5
f 446/1/5 414/1/5 427/1/5
f 446/2/5 438/2/5 437/2/5
f 446/2/5 439/2/5 438/2/5
f 447/1/5 440/1/5 439/1/5
f 447/2/5 439/2/5 446/2/5
f 448/2/5 441/2/5 440/2/5
f 448/1/5 440/1/5 447/1/5
f 448/2/5 442/2/5 441/2/5
f 448/2/5 443/2/5 442/2/5
f 449/1/5 386/1/5 415/1/5
f 449/2/5 443/2/5 448/2/5
f 449/2/5 415/2/5 443/2/5
f 450/1/5 430/1/5 424/1/5
f 450/2/5 445/2/5 444/2/5
f 450/2/5 444/2/5 430/2/5
f 451/1/5 426/1/5 445/1/5
f 451/2/5 445/2/5 450/2/5
f 452/1/5 424/1/5 385/1/5
f 452/1/5 450/1/5 424/1/5
f 452/1/5 451/1/5 450/1/5
f 453/1/5 426/1/5 451/1/5
f 453/1/5 451/1/5 452/1/5
f 453/2/5 434/2/5 426/2/5
f 454/1/5 452/1/5 385/1/5
f 454/2/5 453/2/5 452/2/5
f 455/2/5 434/2/5 453/2/5
f 455/2/5 453/2/5 454/2/5
f 455/1/5 435/1/5 434/1/5
f 456/1/5 446/1/5 427/1/5
f 456/1/5 447/1/5 446/1/5
f 456/1/5 449/1/5 448/1/5
f 456/1/5 448/1/5 447/1/5
f 457/1/5 386/1/5 449/1/5
f 457/1/5 449/1/5 456/1/5
f 458/2/5 457/2/5 456/2/5
f 459/2/5 457/2/5 458/2/5
f 460/1/5 435/1/5 455/1/5
f 460/1/5 455/1/5 454/1/5
f 460/2/5 427/2/5 435/2/5
f 461/1/5 456/1/5 427/1/5
f 461/2/5 427/2/5 460/2/5
f 462/2/5 458/2/5 456/2/5
f 462/1/5 456/1/5 461/1/5
f 463/1/5 459/1/5 458/1/5
f 463/2/5 458/2/5 462/2/5
f 464/2/5 457/2/5 459/2/5
f 464/1/5 459/1/5 463/1/5
f 465/1/5 386/1/5 457/1/5
f 465/2/5 457/2/5 464/2/5
f 466/1/5 454/1/5 385/1/5
f 466/1/5 463/1/5 462/1/5
f 466/1/5 465/1/5 464/1/5
f 466/1/5 464/1/5 463/1/5
f 466/1/5 461/1/5 460/1/5
f 466/1/5 460/1/5 454/1/5
f 466/1/5 462/1/5 461/1/5
f 467/1/5 386/1/5 465/1/5
f 467/1/5 465/1/5 466/1/5
f 470/1/6 471/1/6 474/1/6
f 474/1/6 471/1/6 475/1/6
f 468/1/6 469/1/6 478/1/6
f 478/1/6 469/1/6 479/1/6
f 470/1/6 474/1/6 481/1/6
f 481/1/6 474/1/6 482/1/6
f 476/1/6 477/1/6 483/1/6
f 475/1/6 471/1/6 484/1/6
f 484/1/6 471/1/6 485/1/6
f 481/1/6 482/1/6 486/1/6
f 482/1/6 483/1/6 486/1/6
f 480/1/6 481/1/6 486/1/6
f 483/1/6 477/1/6 486/1/6
f 486/1/6 477/1/6 487/1/6
f 485/1/6 471/1/6 488/1/6
f 488/1/6 471/1/6 489/1/6
f 480/1/6 486/1/6 490/1/6
f 472/1/6 473/1/6 491/1/6
f 480/1/6 490/1/6 492/1/6
f 490/1/6 491/1/6 492/1/6
f 492/1/6 491/1/6 493/1/6
f 493/1/6 491/1/6 496/1/6
f 491/1/6 473/1/6 497/1/6
f 496/1/6 491/1/6 497/1/6
f 498/1/6 499/1/6 500/1/6
f 500/1/6 499/1/6 501/1/6
f 494/1/6 495/1/6 502/1/6
f 502/1/6 495/1/6 503/1/6
f 493/1/6 496/1/6 507/1/6
f 506/1/6 507/1/6 508/1/6
f 507/1/6 496/1/6 509/1/6
f 508/1/6 507/1/6 509/1/6
f 506/1/6 508/1/6 510/1/6
f 510/1/6 508/1/6 511/1/6
f 498/1/6 500/1/6 514/1/6
f 514/1/6 500/1/6 515/1/6
f 504/1/6 505/1/6 516/1/6
f 516/1/6 505/1/6 517/1/6
f 517/1/6 505/1/6 518/1/6
f 518/1/6 505/1/6 519/1/6
f 501/1/6 499/1/6 520/1/6
f 520/1/6 499/1/6 521/1/6
f 511/1/6 508/1/6 522/1/6
f 522/1/6 508/1/6 523/1/6
f 509/1/6 496/1/6 524/1/6
f 517/1/6 518/1/6 525/1/6
f 525/1/6 518/1/6 526/1/6
f 497/1/6 473/1/6 527/1/6
f 506/1/6 510/1/6 528/1/6
f 523/1/6 508/1/6 529/1/6
f 506/1/6 528/1/6 530/1/6
f 528/1/6 529/1/6 530/1/6
f 529/1/6 508/1/6 531/1/6
f 530/1/6 529/1/6 531/1/6
f 512/1/6 513/1/6 533/1/6
f 525/1/6 526/1/6 534/1/6
f 524/1/6 525/1/6 534/1/6
f 526/1/6 527/1/6 534/1/6
f 509/1/6 524/1/6 534/1/6
f 527/1/6 473/1/6 535/1/6
f 534/1/6 527/1/6 535/1/6
f 532/1/6 533/1/6 538/1/6
f 533/1/6 513/1/6 539/1/6
f 538/1/6 533/1/6 539/1/6
f 509/1/6 534/1/6 540/1/6
f 540/1/6 534/1/6 541/1/6
f 536/1/6 537/1/6 542/1/6
f 542/1/6 537/1/6 543/1/6
f 535/1/6 473/1/6 544/1/6
f 544/1/6 473/1/6 545/1/6
f 546/2/6 547/2/6 548/2/6
f 548/2/6 547/2/6 549/2/6
f 549/2/6 547/2/6 550/2/6
f 550/2/6 547/2/6 551/2/6
f 551/2/6 547/2/6 552/2/6
f 552/2/6 547/2/6 553/2/6
f 554/2/6 555/2/6 556/2/6
f 556/2/6 555/2/6 557/2/6
f 546/2/6 548/2/6 558/2/6
f 549/2/6 550/2/6 559/2/6
f 546/2/6 558/2/6 560/2/6
f 558/2/6 559/2/6 560/2/6
f 559/2/6 550/2/6 561/2/6
f 560/2/6 559/2/6 561/2/6
f 554/2/6 556/2/6 562/2/6
f 562/2/6 556/2/6 563/2/6
f 557/2/6 555/2/6 565/2/6
f 565/2/6 555/2/6 566/2/6
f 551/2/6 552/2/6 567/2/6
f 565/2/6 566/2/6 568/2/6
f 566/2/6 567/2/6 568/2/6
f 564/2/6 565/2/6 568/2/6
f 567/2/6 552/2/6 569/2/6
f 568/2/6 567/2/6 569/2/6
f 546/2/6 560/2/6 570/2/6
f 546/2/6 570/2/6 572/2/6
f 570/2/6 571/2/6 572/2/6
f 572/2/6 571/2/6 573/2/6
f 574/2/6 575/2/6 576/2/6
f 576/2/6 575/2/6 577/2/6
f 546/2/6 572/2/6 580/2/6
f 573/2/6 571/2/6 581/2/6
f 578/2/6 579/2/6 582/2/6
f 582/2/6 579/2/6 583/2/6
f 546/2/6 580/2/6 584/2/6
f 580/2/6 581/2/6 584/2/6
f 581/2/6 571/2/6 585/2/6
f 584/2/6 581/2/6 585/2/6
f 586/2/6 587/2/6 590/2/6
f 590/2/6 587/2/6 591/2/6
f 574/2/6 576/2/6 592/2/6
f 578/2/6 582/2/6 593/2/6
f 593/2/6 582/2/6 594/2/6
f 583/2/6 579/2/6 597/2/6
f 597/2/6 579/2/6 598/2/6
f 577/2/6 575/2/6 599/2/6
f 588/2/6 589/2/6 600/2/6
f 594/2/6 595/2/6 602/2/6
f 574/2/6 592/2/6 602/2/6
f 592/2/6 593/2/6 602/2/6
f 593/2/6 594/2/6 602/2/6
f 602/2/6 595/2/6 603/2/6
f 597/2/6 598/2/6 604/2/6
f 598/2/6 599/2/6 604/2/6
f 596/2/6 597/2/6 604/2/6
f 599/2/6 575/2/6 605/2/6
f 604/2/6 599/2/6 605/2/6
f 600/2/6 601/2/6 606/2/6
f 588/2/6 600/2/6 606/2/6
f 606/2/6 601/2/6 607/2/6
f 546/2/6 584/2/6 608/2/6
f 586/2/6 590/2/6 609/2/6
f 546/2/6 608/2/6 610/2/6
f 608/2/6 609/2/6 610/2/6
f 609/2/6 590/2/6 611/2/6
f 610/2/6 609/2/6 611/2/6
f 612/2/6 613/2/6 614/2/6
f 614/2/6 613/2/6 615/2/6
f 546/2/6 610/2/6 616/2/6
f 591/2/6 587/2/6 617/2/6
f 617/2/6 587/2/6 618/2/6
f 612/2/6 614/2/6 619/2/6
f 619/2/6 614/2/6 620/2/6
f 615/2/6 613/2/6 621/2/6
f 621/2/6 613/2/6 622/2/6
f 553/2/6 547/2/6 623/2/6
f 621/2/6 622/2/6 624/2/6
f 622/2/6 623/2/6 624/2/6
f 620/2/6 621/2/6 624/2/6
f 546/2/6 616/2/6 624/2/6
f 619/2/6 620/2/6 624/2/6
f 618/2/6 619/2/6 624/2/6
f 617/2/6 618/2/6 624/2/6
f 616/2/6 617/2/6 624/2/6
f 623/2/6 547/2/6 625/2/6
f 624/2/6 623/2/6 625/2/6
